<?xml version="1.0" encoding="utf-8"?>
<svg viewBox="152.419 144.546 273.353 65.055" xmlns="http://www.w3.org/2000/svg">
  <path d="M 161.0670216064453 161.20300415039063 L 161.0670216064453 181.5810041503906 Q 161.0670216064453 185.21500415039063 162.9760216064453 187.05500415039063 Q 164.88502160644532 188.89500415039063 168.28902160644532 188.89500415039063 Q 171.7390216064453 188.89500415039063 173.6480216064453 187.05500415039063 Q 175.55702160644532 185.21500415039063 175.55702160644532 181.5810041503906 L 175.55702160644532 161.20300415039063 L 180.80102160644532 161.20300415039063 L 180.80102160644532 181.48900415039063 Q 180.80102160644532 185.39900415039062 179.09902160644532 188.11300415039062 Q 177.39702160644532 190.82700415039062 174.54502160644532 192.16100415039062 Q 171.6930216064453 193.49500415039063 168.24302160644532 193.49500415039063 Q 164.7930216064453 193.49500415039063 161.9640216064453 192.16100415039062 Q 159.13502160644532 190.82700415039062 157.47902160644531 188.11300415039062 Q 155.8230216064453 185.39900415039062 155.8230216064453 181.48900415039063 L 155.8230216064453 161.20300415039063 Z M 184.8436015625 177.11900415039062 Q 184.8436015625 172.42700415039062 187.0286015625 168.70100415039062 Q 189.2136015625 164.97500415039062 192.9626015625 162.88200415039063 Q 196.7116015625 160.7890041503906 201.1736015625 160.7890041503906 Q 206.2796015625 160.7890041503906 210.2586015625 163.29600415039062 Q 214.2376015625 165.80300415039062 216.0316015625 170.40300415039061 L 209.7296015625 170.40300415039061 Q 208.4876015625 167.8730041503906 206.2796015625 166.63100415039062 Q 204.0716015625 165.38900415039063 201.1736015625 165.38900415039063 Q 197.9996015625 165.38900415039063 195.5156015625 166.81500415039062 Q 193.0316015625 168.24100415039064 191.6286015625 170.90900415039061 Q 190.2256015625 173.57700415039062 190.2256015625 177.11900415039062 Q 190.2256015625 180.66100415039062 191.6286015625 183.32900415039063 Q 193.0316015625 185.99700415039064 195.5156015625 187.44600415039062 Q 197.9996015625 188.89500415039063 201.1736015625 188.89500415039063 Q 204.0716015625 188.89500415039063 206.2796015625 187.65300415039061 Q 208.4876015625 186.41100415039062 209.7296015625 183.88100415039062 L 216.0316015625 183.88100415039062 Q 214.2376015625 188.48100415039062 210.2586015625 190.96500415039063 Q 206.2796015625 193.44900415039064 201.1736015625 193.44900415039064 Q 196.6656015625 193.44900415039064 192.9396015625 191.35600415039062 Q 189.2136015625 189.26300415039063 187.0286015625 185.53700415039063 Q 184.8436015625 181.81100415039063 184.8436015625 177.11900415039062 Z M 240.43241979980468 186.64100415039061 L 227.04641979980468 186.64100415039061 L 224.7464197998047 193.17300415039062 L 219.27241979980468 193.17300415039062 L 230.7264197998047 161.15700415039063 L 236.7984197998047 161.15700415039063 L 248.2524197998047 193.17300415039062 L 242.7324197998047 193.17300415039062 Z M 238.9604197998047 182.36300415039062 L 233.7624197998047 167.50500415039062 L 228.5184197998047 182.36300415039062 Z M 269.3211705322266 176.75100415039063 Q 271.89717053222654 177.21100415039064 273.6911705322266 179.46500415039063 Q 275.48517053222656 181.71900415039062 275.48517053222656 184.57100415039062 Q 275.48517053222656 187.00900415039064 274.2201705322266 188.96400415039062 Q 272.9551705322266 190.91900415039063 270.56317053222654 192.04600415039062 Q 268.17117053222654 193.17300415039062 264.99717053222656 193.17300415039062 L 252.20917053222655 193.17300415039062 L 252.20917053222655 161.20300415039063 L 264.39917053222655 161.20300415039063 Q 267.66517053222657 161.20300415039063 270.0111705322266 162.30700415039064 Q 272.3571705322266 163.41100415039062 273.55317053222655 165.27400415039062 Q 274.7491705322266 167.13700415039062 274.7491705322266 169.43700415039064 Q 274.7491705322266 172.19700415039063 273.2771705322266 174.03700415039063 Q 271.80517053222655 175.87700415039063 269.3211705322266 176.75100415039063 Z M 257.4531705322266 174.6350041503906 L 263.93917053222657 174.6350041503906 Q 266.51517053222653 174.6350041503906 267.96417053222655 173.4620041503906 Q 269.41317053222656 172.2890041503906 269.41317053222656 170.08100415039064 Q 269.41317053222656 167.91900415039063 267.96417053222655 166.7000041503906 Q 266.51517053222653 165.48100415039062 263.93917053222657 165.48100415039062 L 257.4531705322266 165.48100415039062 Z M 264.5371705322266 188.89500415039063 Q 267.2051705322266 188.89500415039063 268.72317053222656 187.60700415039062 Q 270.24117053222653 186.3190041503906 270.24117053222653 184.01900415039063 Q 270.24117053222653 181.67300415039062 268.6311705322266 180.29300415039063 Q 267.02117053222656 178.91300415039063 264.35317053222656 178.91300415039063 L 257.4531705322266 178.91300415039063 L 257.4531705322266 188.89500415039063 L 264.5371705322266 188.89500415039063 Z M 309.9655380859375 161.20300415039063 L 309.9655380859375 165.48100415039062 L 296.3955380859375 165.48100415039062 L 296.3955380859375 174.91100415039062 L 306.9755380859375 174.91100415039062 L 306.9755380859375 179.18900415039062 L 296.3955380859375 179.18900415039062 L 296.3955380859375 193.17300415039062 L 291.1515380859375 193.17300415039062 L 291.1515380859375 161.20300415039063 Z M 324.83587622070314 193.5870041503906 Q 321.2478762207031 193.5870041503906 318.34987622070315 191.95400415039063 Q 315.4518762207031 190.32100415039062 313.7958762207031 187.35400415039064 Q 312.1398762207031 184.38700415039062 312.1398762207031 180.47700415039063 Q 312.1398762207031 176.61300415039062 313.8418762207031 173.6230041503906 Q 315.5438762207031 170.63300415039063 318.48787622070313 169.02300415039062 Q 321.43187622070315 167.41300415039063 325.0658762207031 167.41300415039063 Q 328.6998762207031 167.41300415039063 331.64387622070313 169.02300415039062 Q 334.58787622070315 170.63300415039063 336.28987622070315 173.6230041503906 Q 337.99187622070315 176.61300415039062 337.99187622070315 180.47700415039063 Q 337.99187622070315 184.34100415039063 336.2438762207031 187.3310041503906 Q 334.4958762207031 190.32100415039062 331.48287622070313 191.95400415039063 Q 328.4698762207031 193.5870041503906 324.83587622070314 193.5870041503906 Z M 324.83587622070314 189.03300415039064 Q 326.85987622070314 189.03300415039064 328.6308762207031 188.06700415039063 Q 330.4018762207031 187.10100415039062 331.5058762207031 185.16900415039063 Q 332.60987622070314 183.23700415039062 332.60987622070314 180.47700415039063 Q 332.60987622070314 177.71700415039064 331.55187622070315 175.80800415039062 Q 330.4938762207031 173.89900415039062 328.7458762207031 172.93300415039062 Q 326.9978762207031 171.96700415039064 324.9738762207031 171.96700415039064 Q 322.9498762207031 171.96700415039064 321.22487622070315 172.93300415039062 Q 319.49987622070313 173.89900415039062 318.48787622070313 175.80800415039062 Q 317.4758762207031 177.71700415039064 317.4758762207031 180.47700415039063 Q 317.4758762207031 184.57100415039062 319.56887622070315 186.80200415039062 Q 321.6618762207031 189.03300415039064 324.83587622070314 189.03300415039064 Z M 347.4175107421875 171.50700415039063 Q 348.5675107421875 169.5750041503906 350.4765107421875 168.49400415039062 Q 352.3855107421875 167.41300415039063 355.0075107421875 167.41300415039063 L 355.0075107421875 172.84100415039063 L 353.6735107421875 172.84100415039063 Q 350.5915107421875 172.84100415039063 349.0045107421875 174.40500415039062 Q 347.4175107421875 175.96900415039062 347.4175107421875 179.83300415039062 L 347.4175107421875 193.17300415039062 L 342.1735107421875 193.17300415039062 L 342.1735107421875 167.82700415039062 L 347.4175107421875 167.82700415039062 L 347.4175107421875 171.50700415039063 Z M 389.52949145507813 167.41300415039063 Q 392.51949145507814 167.41300415039063 394.8884914550781 168.65500415039062 Q 397.25749145507814 169.89700415039061 398.6144914550781 172.33500415039063 Q 399.97149145507814 174.77300415039062 399.97149145507814 178.22300415039064 L 399.97149145507814 193.17300415039062 L 394.7734914550781 193.17300415039062 L 394.7734914550781 179.00500415039062 Q 394.7734914550781 175.60100415039062 393.0714914550781 173.78400415039061 Q 391.3694914550781 171.96700415039064 388.42549145507815 171.96700415039064 Q 385.4814914550781 171.96700415039064 383.7564914550781 173.78400415039061 Q 382.03149145507814 175.60100415039062 382.03149145507814 179.00500415039062 L 382.03149145507814 193.17300415039062 L 376.8334914550781 193.17300415039062 L 376.8334914550781 179.00500415039062 Q 376.8334914550781 175.60100415039062 375.1314914550781 173.78400415039061 Q 373.4294914550781 171.96700415039064 370.48549145507815 171.96700415039064 Q 367.54149145507813 171.96700415039064 365.8164914550781 173.78400415039061 Q 364.09149145507814 175.60100415039062 364.09149145507814 179.00500415039062 L 364.09149145507814 193.17300415039062 L 358.8474914550781 193.17300415039062 L 358.8474914550781 167.82700415039062 L 364.09149145507814 167.82700415039062 L 364.09149145507814 170.72500415039062 Q 365.3794914550781 169.16100415039062 367.3574914550781 168.28700415039063 Q 369.3354914550781 167.41300415039063 371.58949145507813 167.41300415039063 Q 374.62549145507813 167.41300415039063 377.01749145507813 168.70100415039062 Q 379.4094914550781 169.98900415039063 380.69749145507814 172.42700415039062 Q 381.8474914550781 170.12700415039063 384.2854914550781 168.77000415039063 Q 386.72349145507815 167.41300415039063 389.52949145507813 167.41300415039063 Z M 414.8345703125 193.5870041503906 Q 411.8445703125 193.5870041503906 409.4755703125 192.50600415039062 Q 407.1065703125 191.42500415039063 405.7265703125 189.56200415039064 Q 404.3465703125 187.69900415039064 404.2545703125 185.39900415039062 L 409.6825703125 185.39900415039062 Q 409.8205703125 187.00900415039064 411.2235703125 188.09000415039063 Q 412.6265703125 189.17100415039062 414.7425703125 189.17100415039062 Q 416.9505703125 189.17100415039062 418.1695703125 188.32000415039062 Q 419.3885703125 187.46900415039062 419.3885703125 186.1350041503906 Q 419.3885703125 184.70900415039063 418.0315703125 184.01900415039063 Q 416.6745703125 183.32900415039063 413.7305703125 182.50100415039063 Q 410.8785703125 181.71900415039062 409.0845703125 180.98300415039063 Q 407.2905703125 180.24700415039064 405.9795703125 178.72900415039064 Q 404.6685703125 177.21100415039064 404.6685703125 174.72700415039063 Q 404.6685703125 172.70300415039063 405.8645703125 171.02400415039062 Q 407.0605703125 169.34500415039062 409.2915703125 168.3790041503906 Q 411.5225703125 167.41300415039063 414.4205703125 167.41300415039063 Q 418.7445703125 167.41300415039063 421.3895703125 169.59800415039064 Q 424.0345703125 171.78300415039064 424.2185703125 175.55500415039063 L 418.9745703125 175.55500415039063 Q 418.8365703125 173.85300415039063 417.5945703125 172.84100415039063 Q 416.3525703125 171.82900415039063 414.2365703125 171.82900415039063 Q 412.16657031249997 171.82900415039063 411.0625703125 172.6110041503906 Q 409.9585703125 173.39300415039062 409.9585703125 174.68100415039063 Q 409.9585703125 175.69300415039064 410.6945703125 176.38300415039063 Q 411.4305703125 177.07300415039063 412.4885703125 177.46400415039062 Q 413.5465703125 177.8550041503906 415.6165703125 178.45300415039063 Q 418.3765703125 179.18900415039062 420.1475703125 179.94800415039063 Q 421.9185703125 180.70700415039062 423.2065703125 182.17900415039063 Q 424.4945703125 183.65100415039063 424.5405703125 186.08900415039062 Q 424.5405703125 188.25100415039063 423.3445703125 189.95300415039063 Q 422.1485703125 191.65500415039062 419.9635703125 192.62100415039063 Q 417.7785703125 193.5870041503906 414.8345703125 193.5870041503906 Z" transform="matrix(1, 0, 0, 1, 0, 0)" style="fill: rgb(255, 255, 255); white-space: pre;"/>
</svg>